<svg xmlns="http://www.w3.org/2000/svg" xmlns:xlink="http://www.w3.org/1999/xlink" version="1.1" width="256" height="256" viewBox="0 0 256 256" xml:space="preserve">
    <defs>
        <!-- Neon Glow Effect Filter -->
        <filter id="neon-glow" x="-50%" y="-50%" width="200%" height="200%">
            <feGaussianBlur in="SourceAlpha" stdDeviation="3" result="blur"/>
            <feOffset in="blur" dx="0" dy="0" result="offsetBlur"/>
            <feFlood flood-color="#B51F1A" result="glowColor"/>
            <feComposite in="glowColor" in2="offsetBlur" operator="in" result="coloredBlur"/>
            <feMerge>
                <feMergeNode in="coloredBlur"/>
                <feMergeNode in="SourceGraphic"/>
            </feMerge>
        </filter>
    </defs>
    <g transform="translate(1.4065934065934016 1.4065934065934016) scale(2.81 2.81)" fill="none" stroke="#1ED760" stroke-width="2">
        <path d="M 26.698 45.462 c -10.516 0 -19.071 -8.556 -19.071 -19.071 v -6.352 c 0 -10.516 8.556 -19.072 19.071 -19.072 c 10.516 0 19.072 8.556 19.072 19.072 v 6.352 C 45.77 36.906 37.214 45.462 26.698 45.462 z M 26.698 2.967 c -9.413 0 -17.071 7.659 -17.071 17.072 v 6.352 c 0 9.413 7.658 17.071 17.071 17.071 S 43.77 35.804 43.77 26.39 v -6.352 C 43.77 10.625 36.111 2.967 26.698 2.967 z" stroke-linecap="round" filter="url(#neon-glow)"/>
        <path d="M 16.806 80.191 c -9.266 0 -16.805 -7.538 -16.805 -16.804 c 0 -10.986 8.938 -19.924 19.924 -19.924 h 13.546 c 1.387 0 2.773 0.144 4.121 0.427 c 0.541 0.114 0.887 0.644 0.773 1.184 c -0.114 0.541 -0.645 0.885 -1.184 0.773 c -1.213 -0.255 -2.461 -0.384 -3.71 -0.384 H 19.925 c -9.883 0 -17.924 8.041 -17.924 17.924 c 0 8.163 6.641 14.804 14.805 14.804 c 0.552 0 1 0.447 1 1 C 17.806 79.744 17.358 80.191 16.806 80.191 z" stroke-linecap="round" filter="url(#neon-glow)"/>
        <path d="M 27.992 68.656 h -9.114 c -3.477 0 -6.306 -2.829 -6.306 -6.306 c 0 -0.553 0.448 -1 1 -1 c 0.552 0 1 0.447 1 1 c 0 2.374 1.932 4.306 4.306 4.306 h 9.114 c 0.552 0 1 0.447 1 1 C 28.991 68.209 28.544 68.656 27.992 68.656 z" stroke-linecap="round" filter="url(#neon-glow)"/>
        <path d="M 13.572 63.35 c -0.552 0 -1 -0.447 -1 -1 c 0 -1.64 0.528 -3.191 1.527 -4.487 c 0.337 -0.439 0.964 -0.521 1.403 -0.182 c 0.437 0.337 0.519 0.965 0.181 1.402 c -0.727 0.943 -1.111 2.072 -1.111 3.267 C 14.572 62.903 14.124 63.35 13.572 63.35 z" stroke-linecap="round" filter="url(#neon-glow)"/>
        <path d="M 18.144 21.114 c -3.429 0 -6.718 -0.549 -9.776 -1.633 c -0.428 -0.151 -0.7 -0.572 -0.663 -1.024 c 0.808 -9.807 9.15 -17.49 18.992 -17.49 c 0.552 0 1 0.448 1 1 s -0.448 1 -1 1 c -8.549 0 -15.833 6.475 -16.918 14.88 c 2.632 0.841 5.441 1.268 8.364 1.268 c 5.442 0 10.502 -1.474 14.246 -4.151 c 0.348 -0.249 0.815 -0.249 1.163 0 c 2.98 2.13 6.998 3.546 11.313 3.985 c 0.55 0.056 0.95 0.546 0.894 1.096 c -0.056 0.549 -0.551 0.958 -1.096 0.894 c -4.384 -0.446 -8.504 -1.841 -11.692 -3.947 C 28.96 19.654 23.726 21.114 18.144 21.114 z" stroke-linecap="round" filter="url(#neon-glow)"/>
        <path d="M 80.109 80.191 c -0.094 0 -0.189 -0.013 -0.284 -0.041 c -0.529 -0.157 -0.831 -0.714 -0.675 -1.243 l 8.719 -29.441 c 0.282 -0.952 0.103 -1.956 -0.492 -2.752 c -0.594 -0.795 -1.505 -1.252 -2.498 -1.252 H 39.623 c -2.365 0 -4.486 1.584 -5.157 3.852 l -8.931 30.161 c -0.157 0.529 -0.714 0.832 -1.243 0.675 c -0.529 -0.157 -0.832 -0.713 -0.675 -1.243 l 8.931 -30.161 c 0.921 -3.111 3.83 -5.284 7.075 -5.284 h 45.255 c 1.631 0 3.125 0.749 4.101 2.056 c 0.977 1.307 1.27 2.952 0.808 4.517 l -8.719 29.441 C 80.939 79.91 80.54 80.191 80.109 80.191 z" stroke-linecap="round" filter="url(#neon-glow)"/>
        <path d="M 57.885 67.855 c -0.16 0 -0.319 -0.01 -0.479 -0.028 c -1.11 -0.132 -2.107 -0.739 -2.808 -1.71 c -1 -1.386 -1.333 -3.35 -0.913 -5.388 c 0.729 -3.55 3.448 -6.069 6.192 -5.75 c 1.111 0.133 2.108 0.74 2.809 1.712 c 0.999 1.386 1.331 3.349 0.911 5.386 l 0 0 C 62.909 65.421 60.457 67.855 57.885 67.855 z M 59.402 56.951 c -1.595 0 -3.277 1.843 -3.759 4.181 c -0.303 1.47 -0.087 2.896 0.576 3.815 c 0.261 0.361 0.719 0.811 1.422 0.894 c 1.658 0.205 3.49 -1.71 3.996 -4.166 v -0.001 c 0.303 -1.469 0.088 -2.894 -0.574 -3.813 c -0.261 -0.362 -0.72 -0.811 -1.423 -0.895 C 59.561 56.956 59.481 56.951 59.402 56.951 z" stroke-linecap="round" filter="url(#neon-glow)"/>
        <path d="M 85.447 89.033 H 4.554 c -2.511 0 -4.553 -2.043 -4.553 -4.554 v -1.735 c 0 -2.511 2.042 -4.554 4.553 -4.554 h 80.893 c 2.511 0 4.553 2.043 4.553 4.554 v 1.735 C 89.999 86.99 87.957 89.033 85.447 89.033 z M 4.554 80.191 c -1.408 0 -2.553 1.145 -2.553 2.554 v 1.735 c 0 1.408 1.145 2.554 2.553 2.554 h 80.893 c 1.407 0 2.553 -1.145 2.553 -2.554 v -1.735 c 0 -1.408 -1.145 -2.554 -2.553 -2.554 H 4.554 z" stroke-linecap="round" filter="url(#neon-glow)"/>
    </g>
</svg>
